SplineFontDB: 3.2
FontName: RoslugeMono
FullName: Rosluge Mono
FamilyName: RoslugeMono
Weight: Book
Copyright: Copyright (c) 2024, Rose & Slug Novack
Version: 001.000
ItalicAngle: 0
UnderlinePosition: -100
UnderlineWidth: 50
Ascent: 800
Descent: 200
InvalidEm: 0
sfntRevision: 0x00010000
LayerCount: 2
Layer: 0 1 "Back" 1
Layer: 1 1 "Fore" 0
XUID: [1021 642 -671523807 16377412]
StyleMap: 0x0000
FSType: 0
OS2Version: 4
OS2_WeightWidthSlopeOnly: 0
OS2_UseTypoMetrics: 1
CreationTime: 1723557484
ModificationTime: 1723842240
PfmFamily: 17
TTFWeight: 400
TTFWidth: 5
LineGap: 90
VLineGap: 0
Panose: 2 0 5 3 0 0 0 0 0 0
OS2TypoAscent: 800
OS2TypoAOffset: 0
OS2TypoDescent: -200
OS2TypoDOffset: 0
OS2TypoLinegap: 90
OS2WinAscent: 804
OS2WinAOffset: 0
OS2WinDescent: 200
OS2WinDOffset: 0
HheadAscent: 804
HheadAOffset: 0
HheadDescent: -200
HheadDOffset: 0
OS2SubXSize: 650
OS2SubYSize: 700
OS2SubXOff: 0
OS2SubYOff: 140
OS2SupXSize: 650
OS2SupYSize: 700
OS2SupXOff: 0
OS2SupYOff: 480
OS2StrikeYSize: 49
OS2StrikeYPos: 258
OS2CapHeight: 800
OS2XHeight: 500
OS2Vendor: 'PfEd'
OS2CodePages: 00000001.00000000
OS2UnicodeRanges: 00000001.02000040.04000020.00000000
Lookup: 4 0 1 "'liga' Standard Ligatures in Latin lookup 0" { "'liga' Standard Ligatures in Latin lookup 0 subtable"  } ['liga' ('DFLT' <'dflt' > 'latn' <'dflt' > ) ]
MarkAttachClasses: 1
DEI: 91125
ShortTable: cvt  2
  33
  633
EndShort
ShortTable: maxp 16
  1
  0
  112
  316
  16
  0
  0
  2
  0
  1
  1
  0
  64
  46
  0
  0
EndShort
LangName: 1033 "" "" "Regular" "FontForge : Rosluge Mono : 15-8-2024" "" "Version 001.000"
GaspTable: 1 65535 2 0
Encoding: UnicodeFull
UnicodeInterp: none
NameList: AGL For New Fonts
DisplaySize: -48
AntiAlias: 1
FitToEm: 0
WinInfo: 754 26 15
BeginChars: 1114115 250

StartChar: .notdef
Encoding: 1114112 -1 0
Width: 364
GlyphClass: 1
Flags: W
LayerCount: 2
Fore
SplineSet
33 0 m 1,0,-1
 33 666 l 1,1,-1
 298 666 l 1,2,-1
 298 0 l 1,3,-1
 33 0 l 1,0,-1
66 33 m 1,4,-1
 265 33 l 1,5,-1
 265 633 l 1,6,-1
 66 633 l 1,7,-1
 66 33 l 1,4,-1
EndSplineSet
Validated: 1
EndChar

StartChar: exclam
Encoding: 33 33 4
Width: 1000
GlyphClass: 2
Flags: W
LayerCount: 2
Fore
SplineSet
400 200 m 1,0,-1
 600 200 l 1,1,-1
 600 0 l 1,2,-1
 400 0 l 1,3,-1
 400 200 l 1,0,-1
450 800 m 1,4,-1
 550 800 l 1,5,-1
 550 300 l 1,6,-1
 450 300 l 1,7,-1
 450 800 l 1,4,-1
EndSplineSet
Validated: 1
EndChar

StartChar: quotedbl
Encoding: 34 34 5
Width: 1000
GlyphClass: 2
Flags: W
LayerCount: 2
Fore
SplineSet
550 800 m 1,0,-1
 650 800 l 1,1,-1
 650 600 l 1,2,-1
 550 600 l 1,3,-1
 550 800 l 1,0,-1
350 800 m 1,4,-1
 450 800 l 1,5,-1
 450 600 l 1,6,-1
 350 600 l 1,7,-1
 350 800 l 1,4,-1
EndSplineSet
Validated: 1
EndChar

StartChar: numbersign
Encoding: 35 35 6
Width: 1000
GlyphClass: 2
Flags: W
LayerCount: 2
Fore
SplineSet
100 300 m 1,0,-1
 900 300 l 1,1,-1
 900 200 l 1,2,-1
 100 200 l 1,3,-1
 100 300 l 1,0,-1
100 600 m 1,4,-1
 900 600 l 1,5,-1
 900 500 l 1,6,-1
 100 500 l 1,7,-1
 100 600 l 1,4,-1
700 800 m 1,8,-1
 700 0 l 1,9,-1
 600 0 l 1,10,-1
 600 800 l 1,11,-1
 700 800 l 1,8,-1
300 800 m 1,12,-1
 400 800 l 1,13,-1
 400 0 l 1,14,-1
 300 0 l 1,15,-1
 300 800 l 1,12,-1
EndSplineSet
Validated: 5
EndChar

StartChar: dollar
Encoding: 36 36 7
Width: 1000
GlyphClass: 2
Flags: W
LayerCount: 2
Fore
SplineSet
450 800 m 1,0,-1
 550 800 l 1,1,-1
 550 0 l 1,2,-1
 450 0 l 1,3,-1
 450 800 l 1,0,-1
800 100 m 1,4,-1
 100 100 l 1,5,-1
 100 200 l 1,6,-1
 800 200 l 1,7,-1
 800 100 l 1,4,-1
900 400 m 1,8,-1
 900 200 l 1,9,-1
 800 100 l 1,10,-1
 800 500 l 1,11,-1
 900 400 l 1,8,-1
200 400 m 1,12,-1
 200 500 l 1,13,-1
 800 500 l 1,14,-1
 800 400 l 1,15,-1
 200 400 l 1,12,-1
100 600 m 1,16,-1
 200 700 l 1,17,-1
 200 400 l 1,18,-1
 100 500 l 1,19,-1
 100 600 l 1,16,-1
900 700 m 1,20,-1
 900 600 l 1,21,-1
 200 600 l 1,22,-1
 200 700 l 1,23,-1
 900 700 l 1,20,-1
EndSplineSet
Validated: 5
EndChar

StartChar: percent
Encoding: 37 37 8
Width: 1000
GlyphClass: 2
Flags: W
LayerCount: 2
Fore
SplineSet
200 500 m 1,0,-1
 200 600 l 1,1,-1
 300 600 l 1,2,-1
 300 800 l 1,3,-1
 400 700 l 1,4,-1
 400 600 l 1,5,-1
 300 500 l 1,6,-1
 200 500 l 1,0,-1
200 500 m 1,7,-1
 100 600 l 1,8,-1
 100 700 l 1,9,-1
 200 800 l 1,10,-1
 300 800 l 1,11,-1
 300 700 l 1,12,-1
 200 700 l 1,13,-1
 200 500 l 1,7,-1
0 0 m 1,14,-1
 800 800 l 1,15,-1
 1000 800 l 1,16,-1
 200 0 l 1,17,-1
 0 0 l 1,14,-1
700 0 m 1,18,-1
 700 100 l 1,19,-1
 800 100 l 1,20,-1
 800 300 l 1,21,-1
 900 200 l 1,22,-1
 900 100 l 1,23,-1
 800 0 l 1,24,-1
 700 0 l 1,18,-1
700 0 m 1,25,-1
 600 100 l 1,26,-1
 600 200 l 1,27,-1
 700 300 l 1,28,-1
 800 300 l 1,29,-1
 800 200 l 1,30,-1
 700 200 l 1,31,-1
 700 0 l 1,25,-1
EndSplineSet
Validated: 5
EndChar

StartChar: ampersand
Encoding: 38 38 9
Width: 1000
GlyphClass: 2
Flags: W
LayerCount: 2
Fore
SplineSet
300 600 m 1,0,-1
 400 700 l 1,1,-1
 450 700 l 1,2,-1
 450 800 l 1,3,-1
 550 800 l 1,4,-1
 550 700 l 1,5,-1
 700 700 l 1,6,-1
 700 600 l 1,7,-1
 400 600 l 1,8,-1
 400 500 l 1,9,-1
 700 500 l 1,10,-1
 700 400 l 1,11,-1
 400 400 l 1,12,-1
 400 200 l 1,13,-1
 700 200 l 1,14,-1
 700 100 l 1,15,-1
 550 100 l 1,16,-1
 550 0 l 1,17,-1
 450 0 l 1,18,-1
 450 100 l 1,19,-1
 400 100 l 1,20,-1
 300 200 l 1,21,-1
 300 400 l 1,22,-1
 350 450 l 1,23,-1
 300 500 l 1,24,-1
 300 600 l 1,0,-1
EndSplineSet
Validated: 1
EndChar

StartChar: quotesingle
Encoding: 39 39 10
Width: 1000
GlyphClass: 2
Flags: W
LayerCount: 2
Fore
SplineSet
450 800 m 1,0,-1
 550 800 l 1,1,-1
 550 600 l 1,2,-1
 450 600 l 1,3,-1
 450 800 l 1,0,-1
EndSplineSet
Validated: 1
EndChar

StartChar: parenleft
Encoding: 40 40 11
Width: 1000
GlyphClass: 2
Flags: W
LayerCount: 2
Fore
SplineSet
400 700 m 1,0,-1
 500 800 l 1,1,-1
 600 800 l 1,2,-1
 600 700 l 1,3,-1
 500 600 l 1,4,-1
 500 200 l 1,5,-1
 600 100 l 1,6,-1
 600 0 l 1,7,-1
 500 0 l 1,8,-1
 400 100 l 1,9,-1
 400 700 l 1,0,-1
EndSplineSet
Validated: 1
EndChar

StartChar: parenright
Encoding: 41 41 12
Width: 1000
GlyphClass: 2
Flags: W
LayerCount: 2
Fore
SplineSet
600 700 m 1,0,-1
 500 800 l 1,1,-1
 400 800 l 1,2,-1
 400 700 l 1,3,-1
 500 600 l 1,4,-1
 500 200 l 1,5,-1
 400 100 l 1,6,-1
 400 0 l 1,7,-1
 500 0 l 1,8,-1
 600 100 l 1,9,-1
 600 700 l 1,0,-1
EndSplineSet
Validated: 9
EndChar

StartChar: asterisk
Encoding: 42 42 13
Width: 1000
GlyphClass: 2
Flags: W
LayerCount: 2
Fore
SplineSet
400 650 m 1,0,-1
 350 700 l 1,1,-1
 350 800 l 1,2,-1
 450 800 l 1,3,-1
 500 750 l 1,4,-1
 550 800 l 1,5,-1
 650 800 l 1,6,-1
 650 700 l 1,7,-1
 600 650 l 1,8,-1
 650 600 l 1,9,-1
 650 500 l 1,10,-1
 550 500 l 1,11,-1
 500 550 l 1,12,-1
 450 500 l 1,13,-1
 350 500 l 1,14,-1
 350 600 l 1,15,-1
 400 650 l 1,0,-1
EndSplineSet
Validated: 1
EndChar

StartChar: plus
Encoding: 43 43 14
Width: 1000
GlyphClass: 2
Flags: W
LayerCount: 2
Fore
SplineSet
300 350 m 1,0,-1
 300 450 l 1,1,-1
 700 450 l 1,2,-1
 700 350 l 1,3,-1
 300 350 l 1,0,-1
450 600 m 1,4,-1
 550 600 l 1,5,-1
 550 200 l 1,6,-1
 450 200 l 1,7,-1
 450 600 l 1,4,-1
EndSplineSet
Validated: 5
EndChar

StartChar: comma
Encoding: 44 44 15
Width: 1000
GlyphClass: 2
Flags: W
LayerCount: 2
Fore
SplineSet
400 200 m 1,0,-1
 600 200 l 1,1,-1
 600 -100 l 1,2,-1
 500 -100 l 1,3,-1
 500 0 l 1,4,-1
 400 0 l 1,5,-1
 400 200 l 1,0,-1
EndSplineSet
Validated: 1
EndChar

StartChar: hyphen
Encoding: 45 45 16
Width: 1000
GlyphClass: 2
Flags: W
LayerCount: 2
Fore
SplineSet
350 450 m 1,0,-1
 650 450 l 1,1,-1
 650 350 l 1,2,-1
 350 350 l 1,3,-1
 350 450 l 1,0,-1
EndSplineSet
Validated: 1
EndChar

StartChar: period
Encoding: 46 46 17
Width: 1000
GlyphClass: 2
Flags: W
LayerCount: 2
Fore
SplineSet
400 200 m 1,0,-1
 600 200 l 1,1,-1
 600 0 l 1,2,-1
 400 0 l 1,3,-1
 400 200 l 1,0,-1
EndSplineSet
Validated: 1
EndChar

StartChar: slash
Encoding: 47 47 18
Width: 1000
GlyphClass: 2
Flags: W
LayerCount: 2
Fore
SplineSet
0 0 m 1,0,-1
 800 800 l 1,1,-1
 1000 800 l 1,2,-1
 200 0 l 1,3,-1
 0 0 l 1,0,-1
EndSplineSet
Validated: 1
EndChar

StartChar: zero
Encoding: 48 48 19
Width: 1000
GlyphClass: 2
Flags: W
LayerCount: 2
Fore
SplineSet
450 500 m 1,0,-1
 550 500 l 1,1,-1
 550 300 l 1,2,-1
 450 300 l 1,3,-1
 450 500 l 1,0,-1
600 100 m 1,4,-1
 700 200 l 1,5,-1
 700 600 l 1,6,-1
 600 700 l 1,7,-1
 800 700 l 1,8,-1
 800 100 l 1,9,-1
 700 0 l 1,10,-1
 300 0 l 1,11,-1
 200 100 l 1,12,-1
 600 100 l 1,4,-1
200 100 m 1,13,-1
 200 700 l 1,14,-1
 300 800 l 1,15,-1
 700 800 l 1,16,-1
 800 700 l 1,17,-1
 400 700 l 1,18,-1
 300 600 l 1,19,-1
 300 200 l 1,20,-1
 400 100 l 1,21,-1
 200 100 l 1,13,-1
EndSplineSet
Validated: 5
EndChar

StartChar: one
Encoding: 49 49 20
Width: 1000
GlyphClass: 2
Flags: W
LayerCount: 2
Fore
SplineSet
300 0 m 1,0,-1
 300 100 l 1,1,-1
 450 100 l 1,2,-1
 450 650 l 1,3,-1
 375 575 l 1,4,-1
 300 650 l 1,5,-1
 450 800 l 1,6,-1
 550 800 l 1,7,-1
 550 100 l 1,8,-1
 700 100 l 1,9,-1
 700 0 l 1,10,-1
 300 0 l 1,0,-1
EndSplineSet
Validated: 1
EndChar

StartChar: two
Encoding: 50 50 21
Width: 1000
GlyphClass: 2
Flags: W
LayerCount: 2
Fore
SplineSet
400 700 m 1,0,-1
 300 600 l 1,1,-1
 200 600 l 1,2,-1
 200 700 l 1,3,-1
 300 800 l 1,4,-1
 700 800 l 1,5,-1
 800 700 l 1,6,-1
 800 500 l 1,7,-1
 400 100 l 1,8,-1
 800 100 l 1,9,-1
 800 0 l 1,10,-1
 200 0 l 1,11,-1
 200 100 l 1,12,-1
 700 600 l 1,13,-1
 600 700 l 1,14,-1
 400 700 l 1,0,-1
EndSplineSet
Validated: 1
EndChar

StartChar: three
Encoding: 51 51 22
Width: 1000
GlyphClass: 2
Flags: W
LayerCount: 2
Fore
SplineSet
200 800 m 1,0,-1
 700 800 l 1,1,-1
 800 700 l 1,2,-1
 800 500 l 1,3,-1
 750 450 l 1,4,-1
 800 400 l 1,5,-1
 800 100 l 1,6,-1
 700 0 l 1,7,-1
 200 0 l 1,8,-1
 200 100 l 1,9,-1
 600 100 l 1,10,-1
 700 200 l 1,11,-1
 700 300 l 1,12,-1
 600 400 l 1,13,-1
 200 400 l 1,14,-1
 200 500 l 1,15,-1
 600 500 l 1,16,-1
 700 600 l 1,17,-1
 600 700 l 1,18,-1
 200 700 l 1,19,-1
 200 800 l 1,0,-1
EndSplineSet
Validated: 1
EndChar

StartChar: four
Encoding: 52 52 23
Width: 1000
GlyphClass: 2
Flags: W
LayerCount: 2
Fore
SplineSet
350 500 m 1,0,-1
 700 500 l 1,1,-1
 700 800 l 1,2,-1
 800 800 l 1,3,-1
 800 0 l 1,4,-1
 700 0 l 1,5,-1
 700 400 l 1,6,-1
 300 400 l 1,7,-1
 200 500 l 1,8,-1
 200 800 l 1,9,-1
 300 800 l 1,10,-1
 300 550 l 1,11,-1
 350 500 l 1,0,-1
EndSplineSet
Validated: 1
EndChar

StartChar: five
Encoding: 53 53 24
Width: 1000
GlyphClass: 2
Flags: W
LayerCount: 2
Fore
SplineSet
200 800 m 1,0,-1
 800 800 l 1,1,-1
 800 700 l 1,2,-1
 300 700 l 1,3,-1
 300 500 l 1,4,-1
 700 500 l 1,5,-1
 800 400 l 1,6,-1
 800 100 l 1,7,-1
 700 0 l 1,8,-1
 200 0 l 1,9,-1
 200 100 l 1,10,-1
 700 100 l 1,11,-1
 700 400 l 1,12,-1
 300 400 l 1,13,-1
 200 500 l 1,14,-1
 200 800 l 1,0,-1
EndSplineSet
Validated: 1
EndChar

StartChar: six
Encoding: 54 54 25
Width: 1000
GlyphClass: 2
Flags: W
LayerCount: 2
Fore
SplineSet
800 800 m 1,0,-1
 800 700 l 1,1,-1
 300 700 l 1,2,-1
 300 100 l 1,3,-1
 700 100 l 1,4,-1
 700 400 l 1,5,-1
 300 400 l 1,6,-1
 300 500 l 1,7,-1
 700 500 l 1,8,-1
 800 400 l 1,9,-1
 800 100 l 1,10,-1
 700 0 l 1,11,-1
 300 0 l 1,12,-1
 200 100 l 1,13,-1
 200 700 l 1,14,-1
 300 800 l 1,15,-1
 800 800 l 1,0,-1
EndSplineSet
Validated: 5
EndChar

StartChar: seven
Encoding: 55 55 26
Width: 1000
GlyphClass: 2
Flags: W
LayerCount: 2
Fore
SplineSet
200 800 m 1,0,-1
 800 800 l 1,1,-1
 800 700 l 1,2,-1
 800 500 l 1,3,-1
 500 200 l 1,4,-1
 500 0 l 1,5,-1
 400 0 l 1,6,-1
 400 300 l 1,7,-1
 700 600 l 1,8,-1
 700 700 l 1,9,-1
 200 700 l 1,10,-1
 200 800 l 1,0,-1
EndSplineSet
Validated: 1
EndChar

StartChar: eight
Encoding: 56 56 27
Width: 1000
GlyphClass: 2
Flags: W
LayerCount: 2
Fore
SplineSet
700 800 m 1,0,-1
 300 800 l 1,1,-1
 200 700 l 1,2,-1
 200 500 l 1,3,-1
 250 450 l 1,4,-1
 200 400 l 1,5,-1
 200 100 l 1,6,-1
 300 0 l 1,7,-1
 700 0 l 1,8,-1
 800 100 l 1,9,-1
 800 400 l 1,10,-1
 750 450 l 1,11,-1
 600 450 l 1,12,-1
 600 400 l 1,13,-1
 700 300 l 1,14,-1
 700 200 l 1,15,-1
 600 100 l 1,16,-1
 400 100 l 1,17,-1
 300 200 l 1,18,-1
 300 300 l 1,19,-1
 400 400 l 1,20,-1
 600 400 l 1,21,-1
 600 500 l 1,22,-1
 400 500 l 1,23,-1
 300 600 l 1,24,-1
 400 700 l 1,25,-1
 600 700 l 1,26,-1
 700 600 l 1,27,-1
 600 500 l 1,28,-1
 600 450 l 1,29,-1
 750 450 l 1,30,-1
 800 500 l 1,31,-1
 800 700 l 1,32,-1
 700 800 l 1,0,-1
EndSplineSet
Validated: 5
EndChar

StartChar: nine
Encoding: 57 57 28
Width: 1000
GlyphClass: 2
Flags: W
LayerCount: 2
Fore
SplineSet
200 700 m 1,0,1
 206 706 206 706 216.5 716.5 c 128,-1,2
 227 727 227 727 249 749 c 128,-1,3
 271 771 271 771 285.5 785.5 c 128,-1,4
 300 800 300 800 300 800 c 129,-1,5
 300 800 300 800 500 800 c 128,-1,6
 700 800 700 800 700 800 c 1,7,-1
 800 700 l 1,8,-1
 700 700 l 1,9,-1
 700 650 l 1,10,11
 697 653 697 653 691.5 658.5 c 128,-1,12
 686 664 686 664 675.5 674.5 c 128,-1,13
 665 685 665 685 657.5 692.5 c 128,-1,14
 650 700 650 700 650 700 c 129,-1,15
 650 700 650 700 500 700 c 128,-1,16
 350 700 350 700 350 700 c 1,17,18
 300 650 300 650 300 650 c 1,19,-1
 300 650 l 1,20,-1
 300 651 l 1,21,-1
 300 651 l 1,22,-1
 300 652 l 1,23,-1
 300 653 l 1,24,-1
 300 654 l 1,25,-1
 300 655 l 1,26,-1
 300 656 l 1,27,-1
 300 657 l 1,28,-1
 300 658 l 1,29,-1
 300 659 l 1,30,-1
 300 660 l 1,31,-1
 300 662 l 1,32,-1
 300 663 l 1,33,-1
 300 664 l 1,34,-1
 300 665 l 1,35,-1
 300 667 l 1,36,-1
 300 668 l 1,37,-1
 300 669 l 1,38,-1
 300 671 l 1,39,-1
 300 672 l 1,40,-1
 300 673 l 1,41,-1
 300 675 l 1,42,-1
 300 676 l 1,43,-1
 300 678 l 1,44,-1
 300 679 l 1,45,-1
 300 681 l 1,46,-1
 300 683 l 1,47,-1
 300 684 l 1,48,-1
 300 686 l 1,49,-1
 300 688 l 1,50,-1
 300 689 l 1,51,-1
 300 691 l 1,52,-1
 300 700 l 1,53,54
 200 700 200 700 200 700 c 1,0,1
350 500 m 1,55,-1
 700 500 l 1,56,-1
 700 700 l 1,57,-1
 800 700 l 1,58,-1
 800 0 l 1,59,-1
 700 0 l 1,60,-1
 700 400 l 1,61,-1
 300 400 l 1,62,-1
 200 500 l 1,63,-1
 200 700 l 1,64,-1
 300 700 l 1,65,-1
 300 550 l 1,66,-1
 350 500 l 1,55,-1
EndSplineSet
Validated: 5
EndChar

StartChar: colon
Encoding: 58 58 29
Width: 1000
GlyphClass: 2
Flags: W
LayerCount: 2
Fore
SplineSet
400 650 m 1,0,-1
 600 650 l 1,1,-1
 600 450 l 1,2,-1
 400 450 l 1,3,-1
 400 650 l 1,0,-1
400 350 m 1,4,-1
 600 350 l 1,5,-1
 600 150 l 1,6,-1
 400 150 l 1,7,-1
 400 350 l 1,4,-1
EndSplineSet
Validated: 1
EndChar

StartChar: semicolon
Encoding: 59 59 30
Width: 1000
GlyphClass: 2
Flags: W
LayerCount: 2
Fore
SplineSet
400 650 m 1,0,-1
 600 650 l 1,1,-1
 600 450 l 1,2,-1
 400 450 l 1,3,-1
 400 650 l 1,0,-1
400 350 m 1,4,-1
 600 350 l 1,5,-1
 600 50 l 1,6,-1
 500 50 l 1,7,-1
 500 150 l 1,8,-1
 400 150 l 1,9,-1
 400 350 l 1,4,-1
EndSplineSet
Validated: 1
EndChar

StartChar: less
Encoding: 60 60 31
Width: 1000
GlyphClass: 2
Flags: W
LayerCount: 2
Fore
SplineSet
800 600 m 1,0,-1
 800 500 l 1,1,-1
 500 500 l 1,2,-1
 400 401 l 1,3,-1
 499 300 l 1,4,-1
 800 300 l 1,5,-1
 800 200 l 1,6,-1
 450 200 l 1,7,-1
 300 350 l 1,8,-1
 250 400 l 1,9,-1
 300 450 l 1,10,-1
 450 600 l 1,11,-1
 800 600 l 1,0,-1
EndSplineSet
Validated: 1
EndChar

StartChar: equal
Encoding: 61 61 32
Width: 1000
GlyphClass: 2
Flags: W
LayerCount: 2
Fore
SplineSet
200 300 m 1,0,-1
 800 300 l 1,1,-1
 800 200 l 1,2,-1
 200 200 l 1,3,-1
 200 300 l 1,0,-1
200 600 m 1,4,-1
 800 600 l 1,5,-1
 800 500 l 1,6,-1
 200 500 l 1,7,-1
 200 600 l 1,4,-1
EndSplineSet
Validated: 1
EndChar

StartChar: greater
Encoding: 62 62 33
Width: 1000
GlyphClass: 2
Flags: W
LayerCount: 2
Fore
SplineSet
200 600 m 1,0,-1
 200 500 l 1,1,-1
 500 500 l 1,2,-1
 600 401 l 1,3,-1
 501 300 l 1,4,-1
 200 300 l 1,5,-1
 200 200 l 1,6,-1
 550 200 l 1,7,-1
 700 350 l 1,8,-1
 750 400 l 1,9,-1
 700 450 l 1,10,-1
 550 600 l 1,11,-1
 200 600 l 1,0,-1
EndSplineSet
Validated: 9
EndChar

StartChar: question
Encoding: 63 63 34
Width: 1000
GlyphClass: 2
Flags: W
LayerCount: 2
Fore
SplineSet
400 200 m 1,0,-1
 600 200 l 1,1,-1
 600 0 l 1,2,-1
 400 0 l 1,3,-1
 400 200 l 1,0,-1
200 800 m 1,4,-1
 700 800 l 1,5,-1
 800 700 l 1,6,-1
 800 500 l 1,7,-1
 700 400 l 1,8,-1
 550 400 l 1,9,-1
 550 300 l 1,10,-1
 450 300 l 1,11,-1
 450 400 l 1,12,-1
 550 500 l 1,13,-1
 700 500 l 1,14,-1
 700 700 l 1,15,-1
 200 700 l 1,16,-1
 200 800 l 1,4,-1
EndSplineSet
Validated: 1
EndChar

StartChar: at
Encoding: 64 64 35
Width: 1000
GlyphClass: 2
Flags: W
LayerCount: 2
Fore
SplineSet
900 0 m 1,0,-1
 200 0 l 1,1,-1
 100 100 l 1,2,-1
 100 700 l 1,3,-1
 200 800 l 1,4,-1
 800 800 l 1,5,-1
 900 700 l 1,6,-1
 900 300 l 1,7,-1
 800 200 l 1,8,-1
 400 200 l 1,9,-1
 300 300 l 1,10,-1
 300 500 l 1,11,-1
 400 600 l 1,12,-1
 700 600 l 1,13,-1
 700 300 l 1,14,-1
 600 300 l 1,15,-1
 600 500 l 1,16,-1
 450 500 l 1,17,-1
 400 450 l 1,18,-1
 400 350 l 1,19,-1
 450 300 l 1,20,-1
 750 300 l 1,21,-1
 800 350 l 1,22,-1
 800 650 l 1,23,-1
 750 700 l 1,24,-1
 250 700 l 1,25,-1
 200 650 l 1,26,-1
 200 150 l 1,27,-1
 250 100 l 1,28,-1
 900 100 l 1,29,-1
 900 0 l 1,0,-1
EndSplineSet
Validated: 5
EndChar

StartChar: A
Encoding: 65 65 36
Width: 1000
GlyphClass: 2
Flags: W
LayerCount: 2
Fore
SplineSet
299 500 m 1,0,-1
 701 500 l 1,1,-1
 701 400 l 1,2,-1
 299 400 l 1,3,-1
 299 500 l 1,0,-1
200 0 m 1,4,-1
 200 700 l 1,5,-1
 300 800 l 1,6,-1
 700 800 l 1,7,-1
 800 700 l 1,8,-1
 800 0 l 1,9,-1
 700 0 l 1,10,-1
 700 650 l 1,11,-1
 650 700 l 1,12,-1
 350 700 l 1,13,-1
 300 650 l 1,14,-1
 300 0 l 1,15,-1
 200 0 l 1,4,-1
EndSplineSet
Validated: 5
EndChar

StartChar: B
Encoding: 66 66 37
Width: 1000
GlyphClass: 2
Flags: W
LayerCount: 2
Fore
SplineSet
200 800 m 1,0,-1
 350 800 l 1,1,-1
 700 800 l 1,2,-1
 800 700 l 1,3,-1
 800 500 l 1,4,-1
 650 500 l 1,5,-1
 700 550 l 1,6,-1
 700 650 l 1,7,-1
 650 700 l 1,8,-1
 300 700 l 1,9,-1
 300 650 l 1,10,-1
 300 500 l 1,11,-1
 800 500 l 1,12,-1
 750 450 l 1,13,-1
 800 400 l 1,14,-1
 300 400 l 1,15,-1
 300 150 l 1,16,-1
 300 100 l 1,17,-1
 650 100 l 1,18,-1
 700 150 l 1,19,-1
 700 350 l 1,20,-1
 650 400 l 1,21,-1
 700 400 l 1,22,-1
 800 400 l 1,23,-1
 800 100 l 1,24,-1
 700 0 l 1,25,-1
 350 0 l 1,26,-1
 200 0 l 1,27,-1
 200 100 l 1,28,-1
 200 700 l 1,29,-1
 200 800 l 1,0,-1
EndSplineSet
Validated: 5
EndChar

StartChar: C
Encoding: 67 67 38
Width: 1000
GlyphClass: 2
Flags: W
LayerCount: 2
Fore
SplineSet
300 800 m 1,0,-1
 800 800 l 1,1,-1
 800 700 l 1,2,-1
 350 700 l 1,3,-1
 300 650 l 1,4,-1
 300 150 l 1,5,-1
 350 100 l 1,6,-1
 800 100 l 1,7,-1
 800 0 l 1,8,-1
 300 0 l 1,9,-1
 200 100 l 1,10,-1
 200 700 l 1,11,-1
 300 800 l 1,0,-1
EndSplineSet
Validated: 1
EndChar

StartChar: D
Encoding: 68 68 39
Width: 1000
GlyphClass: 2
Flags: W
LayerCount: 2
Fore
SplineSet
200 800 m 1,0,-1
 700 800 l 1,1,-1
 800 700 l 1,2,-1
 800 400 l 1,3,-1
 700 400 l 1,4,-1
 700 650 l 1,5,-1
 650 700 l 1,6,-1
 300 700 l 1,7,-1
 300 100 l 1,8,-1
 650 100 l 1,9,-1
 700 150 l 1,10,-1
 700 400 l 1,11,-1
 800 400 l 1,12,-1
 800 100 l 1,13,-1
 700 0 l 1,14,-1
 200 0 l 1,15,-1
 200 800 l 1,0,-1
EndSplineSet
Validated: 5
EndChar

StartChar: E
Encoding: 69 69 40
Width: 1000
GlyphClass: 2
Flags: W
LayerCount: 2
Fore
SplineSet
200 800 m 1,0,-1
 350 800 l 1,1,-1
 800 800 l 1,2,-1
 800 700 l 1,3,-1
 300 700 l 1,4,-1
 300 650 l 1,5,-1
 300 500 l 1,6,-1
 800 500 l 1,7,-1
 800 400 l 1,8,-1
 300 400 l 1,9,-1
 300 150 l 1,10,-1
 300 100 l 1,11,-1
 800 100 l 1,12,-1
 800 0 l 1,13,-1
 350 0 l 1,14,-1
 200 0 l 1,15,-1
 200 100 l 1,16,-1
 200 700 l 1,17,-1
 200 800 l 1,0,-1
EndSplineSet
Validated: 1
EndChar

StartChar: F
Encoding: 70 70 41
Width: 1000
GlyphClass: 2
Flags: W
LayerCount: 2
Fore
SplineSet
200 800 m 1,0,-1
 800 800 l 1,1,-1
 800 700 l 1,2,-1
 300 700 l 1,3,-1
 300 500 l 1,4,-1
 800 500 l 1,5,-1
 800 400 l 1,6,-1
 300 400 l 1,7,-1
 300 0 l 1,8,-1
 200 0 l 1,9,-1
 200 800 l 1,0,-1
EndSplineSet
Validated: 1
EndChar

StartChar: G
Encoding: 71 71 42
Width: 1000
GlyphClass: 2
Flags: W
LayerCount: 2
Fore
SplineSet
300 800 m 1,0,-1
 800 800 l 1,1,-1
 800 700 l 1,2,-1
 350 700 l 1,3,-1
 300 650 l 1,4,-1
 300 150 l 1,5,-1
 350 100 l 1,6,-1
 650 100 l 1,7,-1
 700 150 l 1,8,-1
 700 375 l 1,9,-1
 675 400 l 1,10,-1
 550 400 l 1,11,-1
 550 500 l 1,12,-1
 750 500 l 1,13,-1
 800 450 l 1,14,-1
 800 150 l 1,15,-1
 800 100 l 1,16,-1
 700 0 l 1,17,-1
 300 0 l 1,18,-1
 200 100 l 1,19,-1
 200 700 l 1,20,-1
 300 800 l 1,0,-1
EndSplineSet
Validated: 1
EndChar

StartChar: H
Encoding: 72 72 43
Width: 1000
GlyphClass: 2
Flags: W
LayerCount: 2
Fore
SplineSet
200 800 m 1,0,-1
 300 800 l 1,1,-1
 300 500 l 1,2,-1
 700 500 l 1,3,-1
 700 800 l 1,4,-1
 800 800 l 1,5,-1
 800 0 l 1,6,-1
 700 0 l 1,7,-1
 700 400 l 1,8,-1
 300 400 l 1,9,-1
 300 0 l 1,10,-1
 200 0 l 1,11,-1
 200 800 l 1,0,-1
EndSplineSet
Validated: 1
EndChar

StartChar: I
Encoding: 73 73 44
Width: 1000
GlyphClass: 2
Flags: W
LayerCount: 2
Fore
SplineSet
450 800 m 1,0,-1
 550 800 l 1,1,-1
 650 800 l 1,2,-1
 650 700 l 1,3,-1
 550 700 l 1,4,-1
 550 100 l 1,5,-1
 650 100 l 1,6,-1
 650 0 l 1,7,-1
 550 0 l 1,8,-1
 450 0 l 1,9,-1
 350 0 l 1,10,-1
 350 100 l 1,11,-1
 450 100 l 1,12,-1
 450 700 l 1,13,-1
 350 700 l 1,14,-1
 350 800 l 1,15,-1
 450 800 l 1,0,-1
EndSplineSet
Validated: 1
EndChar

StartChar: J
Encoding: 74 74 45
Width: 1000
GlyphClass: 2
Flags: W
LayerCount: 2
Fore
SplineSet
300 0 m 1,0,-1
 200 100 l 1,1,-1
 200 150 l 1,2,-1
 200 200 l 1,3,-1
 300 200 l 1,4,-1
 300 150 l 1,5,-1
 350 100 l 1,6,-1
 650 100 l 1,7,-1
 700 150 l 1,8,-1
 700 800 l 1,9,-1
 800 800 l 1,10,-1
 800 100 l 1,11,-1
 700 0 l 1,12,-1
 300 0 l 1,0,-1
EndSplineSet
Validated: 1
EndChar

StartChar: K
Encoding: 75 75 46
Width: 1000
GlyphClass: 2
Flags: W
LayerCount: 2
Fore
SplineSet
200 800 m 1,0,-1
 300 800 l 1,1,-1
 300 500 l 1,2,-1
 400 500 l 1,3,-1
 700 800 l 1,4,-1
 775 800 l 1,5,-1
 775 725 l 1,6,-1
 500 450 l 1,7,-1
 875 75 l 1,8,-1
 875 0 l 1,9,-1
 800 0 l 1,10,-1
 400 400 l 1,11,-1
 300 400 l 1,12,-1
 300 0 l 1,13,-1
 200 0 l 1,14,-1
 200 800 l 1,0,-1
EndSplineSet
Validated: 1
EndChar

StartChar: L
Encoding: 76 76 47
Width: 1000
GlyphClass: 2
Flags: W
LayerCount: 2
Fore
SplineSet
200 800 m 1,0,-1
 300 800 l 1,1,-1
 300 100 l 1,2,-1
 800 100 l 1,3,-1
 800 0 l 1,4,-1
 200 0 l 1,5,-1
 200 800 l 1,0,-1
EndSplineSet
Validated: 1
EndChar

StartChar: M
Encoding: 77 77 48
Width: 1000
GlyphClass: 2
Flags: W
LayerCount: 2
Fore
SplineSet
200 800 m 1,0,-1
 300 800 l 1,1,-1
 500 600 l 1,2,-1
 700 800 l 1,3,-1
 800 800 l 1,4,-1
 800 0 l 1,5,-1
 700 0 l 1,6,-1
 700 650 l 1,7,-1
 550 500 l 1,8,-1
 450 500 l 1,9,-1
 300 650 l 1,10,-1
 300 0 l 1,11,-1
 200 0 l 1,12,-1
 200 800 l 1,0,-1
EndSplineSet
Validated: 1
EndChar

StartChar: N
Encoding: 78 78 49
Width: 1000
GlyphClass: 2
Flags: W
LayerCount: 2
Fore
SplineSet
200 800 m 1,0,-1
 300 800 l 1,1,-1
 550 550 l 1,2,-1
 700 400 l 1,3,-1
 700 800 l 1,4,-1
 800 800 l 1,5,-1
 800 0 l 1,6,-1
 700 0 l 1,7,-1
 700 250 l 1,8,-1
 450 500 l 1,9,-1
 300 650 l 1,10,-1
 300 0 l 1,11,-1
 200 0 l 1,12,-1
 200 800 l 1,0,-1
EndSplineSet
Validated: 1
EndChar

StartChar: O
Encoding: 79 79 50
Width: 1000
GlyphClass: 2
Flags: W
LayerCount: 2
Fore
SplineSet
300 800 m 1,0,-1
 700 800 l 1,1,-1
 800 700 l 1,2,-1
 800 400 l 1,3,-1
 700 400 l 1,4,-1
 700 650 l 1,5,-1
 650 700 l 1,6,-1
 350 700 l 1,7,-1
 300 650 l 1,8,-1
 300 150 l 1,9,-1
 350 100 l 1,10,-1
 650 100 l 1,11,-1
 700 150 l 1,12,-1
 700 400 l 1,13,-1
 800 400 l 1,14,-1
 800 100 l 1,15,-1
 700 0 l 1,16,-1
 300 0 l 1,17,-1
 200 100 l 1,18,-1
 200 700 l 1,19,-1
 300 800 l 1,0,-1
EndSplineSet
Validated: 5
EndChar

StartChar: P
Encoding: 80 80 51
Width: 1000
GlyphClass: 2
Flags: W
LayerCount: 2
Fore
SplineSet
200 800 m 1,0,-1
 700 800 l 1,1,-1
 800 700 l 1,2,-1
 800 650 l 1,3,-1
 800 600 l 1,4,-1
 700 600 l 1,5,-1
 700 650 l 1,6,-1
 650 700 l 1,7,-1
 300 700 l 1,8,-1
 300 500 l 1,9,-1
 650 500 l 1,10,-1
 700 550 l 1,11,-1
 700 600 l 1,12,-1
 800 600 l 1,13,-1
 800 550 l 1,14,-1
 800 500 l 1,15,-1
 700 400 l 1,16,-1
 300 400 l 1,17,-1
 300 0 l 1,18,-1
 200 0 l 1,19,-1
 200 800 l 1,0,-1
EndSplineSet
Validated: 5
EndChar

StartChar: Q
Encoding: 81 81 52
Width: 1000
GlyphClass: 2
Flags: W
LayerCount: 2
Fore
SplineSet
300 800 m 1,0,-1
 700 800 l 1,1,-1
 800 700 l 1,2,-1
 800 400 l 1,3,-1
 700 400 l 1,4,-1
 700 650 l 1,5,-1
 650 700 l 1,6,-1
 350 700 l 1,7,-1
 300 650 l 1,8,-1
 300 150 l 1,9,-1
 350 100 l 1,10,-1
 500 100 l 1,11,-1
 500 200 l 1,12,-1
 600 200 l 1,13,-1
 600 100 l 1,14,-1
 650 100 l 1,15,-1
 700 150 l 1,16,-1
 700 400 l 1,17,-1
 800 400 l 1,18,-1
 800 100 l 1,19,-1
 700 0 l 1,20,-1
 600 0 l 1,21,-1
 600 -100 l 1,22,-1
 500 -100 l 1,23,-1
 500 0 l 1,24,-1
 300 0 l 1,25,-1
 200 100 l 1,26,-1
 200 700 l 1,27,-1
 300 800 l 1,0,-1
EndSplineSet
Validated: 5
EndChar

StartChar: R
Encoding: 82 82 53
Width: 1000
GlyphClass: 2
Flags: W
LayerCount: 2
Fore
SplineSet
200 800 m 1,0,-1
 700 800 l 1,1,-1
 800 700 l 1,2,-1
 800 650 l 1,3,-1
 800 600 l 1,4,-1
 700 600 l 1,5,-1
 700 650 l 1,6,-1
 650 700 l 1,7,-1
 300 700 l 1,8,-1
 300 500 l 1,9,-1
 650 500 l 1,10,-1
 700 550 l 1,11,-1
 700 600 l 1,12,-1
 800 600 l 1,13,-1
 800 550 l 1,14,-1
 800 500 l 1,15,-1
 700 400 l 1,16,-1
 500 400 l 1,17,-1
 600 300 l 1,18,-1
 750 150 l 1,19,-1
 750 0 l 1,20,-1
 650 0 l 1,21,-1
 650 100 l 1,22,-1
 500 250 l 1,23,-1
 350 400 l 1,24,-1
 300 400 l 1,25,-1
 300 0 l 1,26,-1
 200 0 l 1,27,-1
 200 800 l 1,0,-1
EndSplineSet
Validated: 5
EndChar

StartChar: S
Encoding: 83 83 54
Width: 1000
GlyphClass: 2
Flags: W
LayerCount: 2
Fore
SplineSet
200 0 m 1,0,-1
 200 100 l 1,1,-1
 650 100 l 1,2,-1
 700 150 l 1,3,-1
 700 350 l 1,4,-1
 650 400 l 1,5,-1
 300 400 l 1,6,-1
 200 500 l 1,7,-1
 200 700 l 1,8,-1
 300 800 l 1,9,-1
 800 800 l 1,10,-1
 800 700 l 1,11,-1
 350 700 l 1,12,-1
 300 650 l 1,13,-1
 300 550 l 1,14,-1
 350 500 l 1,15,-1
 700 500 l 1,16,-1
 800 400 l 1,17,-1
 800 100 l 1,18,-1
 700 0 l 1,19,-1
 200 0 l 1,0,-1
EndSplineSet
Validated: 1
EndChar

StartChar: T
Encoding: 84 84 55
Width: 1000
GlyphClass: 2
Flags: W
LayerCount: 2
Fore
SplineSet
450 800 m 1,0,-1
 550 800 l 1,1,-1
 800 800 l 1,2,-1
 800 700 l 1,3,-1
 550 700 l 1,4,-1
 550 0 l 1,5,-1
 450 0 l 1,6,-1
 450 700 l 1,7,-1
 200 700 l 1,8,-1
 200 800 l 1,9,-1
 450 800 l 1,0,-1
EndSplineSet
Validated: 1
EndChar

StartChar: U
Encoding: 85 85 56
Width: 1000
GlyphClass: 2
Flags: W
LayerCount: 2
Fore
SplineSet
200 800 m 1,0,-1
 300 800 l 1,1,-1
 300 150 l 1,2,-1
 350 100 l 1,3,-1
 650 100 l 1,4,-1
 700 150 l 1,5,-1
 700 800 l 1,6,-1
 800 800 l 1,7,-1
 800 100 l 1,8,-1
 700 0 l 1,9,-1
 300 0 l 1,10,-1
 200 100 l 1,11,-1
 200 800 l 1,0,-1
EndSplineSet
Validated: 1
EndChar

StartChar: V
Encoding: 86 86 57
Width: 1000
GlyphClass: 2
Flags: W
LayerCount: 2
Fore
SplineSet
200 800 m 1,0,-1
 300 800 l 1,1,-1
 300 350 l 1,2,-1
 500 150 l 1,3,-1
 700 350 l 1,4,-1
 700 800 l 1,5,-1
 800 800 l 1,6,-1
 800 300 l 1,7,-1
 500 0 l 1,8,-1
 200 300 l 1,9,-1
 200 800 l 1,0,-1
EndSplineSet
Validated: 1
EndChar

StartChar: W
Encoding: 87 87 58
Width: 1000
GlyphClass: 2
Flags: W
LayerCount: 2
Fore
SplineSet
800 0 m 1,0,-1
 700 0 l 1,1,-1
 500 200 l 1,2,-1
 300 0 l 1,3,-1
 200 0 l 1,4,-1
 200 800 l 1,5,-1
 300 800 l 1,6,-1
 300 150 l 1,7,-1
 450 300 l 1,8,-1
 550 300 l 1,9,-1
 700 150 l 1,10,-1
 700 800 l 1,11,-1
 800 800 l 1,12,-1
 800 0 l 1,0,-1
EndSplineSet
Validated: 1
EndChar

StartChar: X
Encoding: 88 88 59
Width: 1000
GlyphClass: 2
Flags: W
LayerCount: 2
Fore
SplineSet
425 400 m 1,0,-1
 200 625 l 1,1,-1
 200 800 l 1,2,-1
 300 800 l 1,3,-1
 300 675 l 1,4,-1
 500 475 l 1,5,-1
 700 675 l 1,6,-1
 700 800 l 1,7,-1
 800 800 l 1,8,-1
 800 625 l 1,9,-1
 575 399 l 1,10,-1
 800 175 l 1,11,-1
 800 0 l 1,12,-1
 700 0 l 1,13,-1
 700 125 l 1,14,-1
 500 325 l 1,15,-1
 300 125 l 1,16,-1
 300 0 l 1,17,-1
 200 0 l 1,18,-1
 200 175 l 1,19,-1
 425 400 l 1,0,-1
EndSplineSet
Validated: 1
EndChar

StartChar: Y
Encoding: 89 89 60
Width: 1000
GlyphClass: 2
Flags: W
LayerCount: 2
Fore
SplineSet
200 800 m 1,0,-1
 300 800 l 1,1,-1
 300 700 l 1,2,-1
 500 500 l 1,3,-1
 700 700 l 1,4,-1
 700 800 l 1,5,-1
 800 800 l 1,6,-1
 800 650 l 1,7,-1
 550 400 l 1,8,-1
 550 0 l 1,9,-1
 450 0 l 1,10,-1
 450 400 l 1,11,-1
 200 650 l 1,12,-1
 200 800 l 1,0,-1
EndSplineSet
Validated: 1
EndChar

StartChar: Z
Encoding: 90 90 61
Width: 1000
GlyphClass: 2
Flags: W
LayerCount: 2
Fore
SplineSet
200 800 m 1,0,-1
 800 800 l 1,1,-1
 800 700 l 1,2,-1
 800 625 l 1,3,-1
 350 153 l 1,4,-1
 350 100 l 1,5,-1
 800 100 l 1,6,-1
 800 0 l 1,7,-1
 200 0 l 1,8,-1
 200 100 l 1,9,-1
 200 175 l 1,10,-1
 650 650 l 1,11,-1
 650 700 l 1,12,-1
 200 700 l 1,13,-1
 200 800 l 1,0,-1
EndSplineSet
Validated: 1
EndChar

StartChar: bracketleft
Encoding: 91 91 62
Width: 1000
GlyphClass: 2
Flags: W
LayerCount: 2
Fore
SplineSet
400 800 m 1,0,-1
 600 800 l 1,1,-1
 600 700 l 1,2,-1
 500 700 l 1,3,-1
 500 100 l 1,4,-1
 600 100 l 1,5,-1
 600 0 l 1,6,-1
 400 0 l 1,7,-1
 400 800 l 1,0,-1
EndSplineSet
Validated: 1
EndChar

StartChar: backslash
Encoding: 92 92 63
Width: 1000
GlyphClass: 2
Flags: W
LayerCount: 2
Fore
SplineSet
800 0 m 1,0,-1
 0 800 l 1,1,-1
 200 800 l 1,2,-1
 1000 0 l 1,3,-1
 800 0 l 1,0,-1
EndSplineSet
Validated: 1
EndChar

StartChar: bracketright
Encoding: 93 93 64
Width: 1000
GlyphClass: 2
Flags: W
LayerCount: 2
Fore
SplineSet
600 800 m 1,0,-1
 400 800 l 1,1,-1
 400 700 l 1,2,-1
 500 700 l 1,3,-1
 500 100 l 1,4,-1
 400 100 l 1,5,-1
 400 0 l 1,6,-1
 600 0 l 1,7,-1
 600 800 l 1,0,-1
EndSplineSet
Validated: 9
EndChar

StartChar: asciicircum
Encoding: 94 94 65
Width: 1000
GlyphClass: 2
Flags: W
LayerCount: 2
Fore
SplineSet
450 800 m 1,0,-1
 550 800 l 1,1,-1
 700 650 l 1,2,-1
 700 550 l 1,3,-1
 600 550 l 1,4,-1
 500 650 l 1,5,-1
 400 550 l 1,6,-1
 300 550 l 1,7,-1
 300 650 l 1,8,-1
 450 800 l 1,0,-1
EndSplineSet
Validated: 1
EndChar

StartChar: underscore
Encoding: 95 95 66
Width: 1000
GlyphClass: 2
Flags: W
LayerCount: 2
Fore
SplineSet
200 100 m 1,0,-1
 800 100 l 1,1,-1
 800 0 l 1,2,-1
 200 0 l 1,3,-1
 200 100 l 1,0,-1
EndSplineSet
Validated: 1
EndChar

StartChar: grave
Encoding: 96 96 67
Width: 1000
GlyphClass: 2
Flags: W
LayerCount: 2
Fore
SplineSet
400 700 m 1,0,-1
 400 800 l 1,1,-1
 500 800 l 1,2,-1
 600 700 l 1,3,-1
 600 600 l 1,4,-1
 500 600 l 1,5,-1
 400 700 l 1,0,-1
EndSplineSet
Validated: 1
EndChar

StartChar: a
Encoding: 97 97 68
Width: 1000
GlyphClass: 2
Flags: W
LayerCount: 2
Fore
SplineSet
200 500 m 1,0,-1
 700 500 l 1,1,-1
 800 400 l 1,2,-1
 800 200 l 1,3,-1
 350 200 l 1,4,-1
 300 150 l 1,5,-1
 350 100 l 1,6,-1
 700 100 l 1,7,-1
 700 200 l 1,8,-1
 800 200 l 1,9,-1
 800 100 l 1,10,-1
 800 0 l 1,11,-1
 300 0 l 1,12,-1
 200 100 l 1,13,-1
 200 200 l 1,14,-1
 300 300 l 1,15,-1
 700 300 l 1,16,-1
 700 350 l 1,17,-1
 650 400 l 1,18,-1
 200 400 l 1,19,-1
 200 500 l 1,0,-1
EndSplineSet
Validated: 5
EndChar

StartChar: b
Encoding: 98 98 69
Width: 1000
GlyphClass: 2
Flags: W
LayerCount: 2
Fore
SplineSet
200 800 m 1,0,-1
 300 800 l 1,1,-1
 300 500 l 1,2,-1
 700 500 l 1,3,-1
 800 400 l 1,4,-1
 800 100 l 1,5,-1
 700 0 l 1,6,-1
 200 0 l 1,7,-1
 200 100 l 1,8,-1
 200 400 l 1,9,-1
 300 400 l 1,10,-1
 300 100 l 1,11,-1
 650 100 l 1,12,-1
 700 150 l 1,13,-1
 700 350 l 1,14,-1
 650 400 l 1,15,-1
 200 400 l 1,16,-1
 200 800 l 1,0,-1
EndSplineSet
Validated: 5
EndChar

StartChar: c
Encoding: 99 99 70
Width: 1000
GlyphClass: 2
Flags: W
LayerCount: 2
Fore
SplineSet
800 500 m 1,0,-1
 800 400 l 1,1,-1
 350 400 l 1,2,-1
 300 350 l 1,3,-1
 300 150 l 1,4,-1
 350 100 l 1,5,-1
 800 100 l 1,6,-1
 800 0 l 1,7,-1
 300 0 l 1,8,-1
 200 100 l 1,9,-1
 200 400 l 1,10,-1
 300 500 l 1,11,-1
 800 500 l 1,0,-1
EndSplineSet
Validated: 1
EndChar

StartChar: d
Encoding: 100 100 71
Width: 1000
GlyphClass: 2
Flags: W
LayerCount: 2
Fore
SplineSet
800 800 m 1,0,-1
 700 800 l 1,1,-1
 700 500 l 1,2,-1
 300 500 l 1,3,-1
 200 400 l 1,4,-1
 200 100 l 1,5,-1
 300 0 l 1,6,-1
 800 0 l 1,7,-1
 800 100 l 1,8,-1
 800 400 l 1,9,-1
 700 400 l 1,10,-1
 700 100 l 1,11,-1
 350 100 l 1,12,-1
 300 150 l 1,13,-1
 300 350 l 1,14,-1
 350 400 l 1,15,-1
 800 400 l 1,16,-1
 800 800 l 1,0,-1
EndSplineSet
Validated: 5
EndChar

StartChar: e
Encoding: 101 101 72
Width: 1000
GlyphClass: 2
Flags: W
LayerCount: 2
Fore
SplineSet
800 400 m 1,0,-1
 800 300 l 1,1,-1
 700 200 l 1,2,-1
 300 200 l 1,3,-1
 300 300 l 1,4,-1
 650 300 l 1,5,-1
 700 350 l 1,6,-1
 650 400 l 1,7,-1
 350 400 l 1,8,-1
 300 350 l 1,9,-1
 300 150 l 1,10,-1
 350 100 l 1,11,-1
 800 100 l 1,12,-1
 800 0 l 1,13,-1
 300 0 l 1,14,-1
 200 100 l 1,15,-1
 200 400 l 1,16,-1
 300 500 l 1,17,-1
 700 500 l 1,18,-1
 800 400 l 1,0,-1
EndSplineSet
Validated: 5
EndChar

StartChar: f
Encoding: 102 102 73
Width: 1000
GlyphClass: 2
Flags: W
LayerCount: 2
Fore
SplineSet
450 0 m 1,0,-1
 450 400 l 1,1,-1
 350 400 l 1,2,-1
 350 500 l 1,3,-1
 450 500 l 1,4,-1
 450 700 l 1,5,-1
 550 800 l 1,6,-1
 650 800 l 1,7,-1
 650 700 l 1,8,-1
 600 700 l 1,9,-1
 550 650 l 1,10,-1
 550 500 l 1,11,-1
 650 500 l 1,12,-1
 650 400 l 1,13,-1
 550 400 l 1,14,-1
 550 0 l 1,15,-1
 450 0 l 1,0,-1
EndSplineSet
Validated: 1
EndChar

StartChar: g
Encoding: 103 103 74
Width: 1002
GlyphClass: 2
Flags: W
LayerCount: 2
Fore
SplineSet
700 500 m 1,0,-1
 700 400 l 1,1,-1
 700 350 l 1,2,-1
 650 400 l 1,3,-1
 350 400 l 1,4,-1
 300 350 l 1,5,-1
 300 150 l 1,6,-1
 350 100 l 1,7,-1
 700 100 l 1,8,-1
 700 500 l 1,9,-1
 800 400 l 1,10,-1
 800 -100 l 1,11,-1
 700 -200 l 1,12,-1
 200 -200 l 1,13,-1
 200 -100 l 1,14,-1
 650 -100 l 1,15,-1
 700 -50 l 1,16,-1
 700 0 l 1,17,-1
 300 0 l 1,18,-1
 200 100 l 1,19,-1
 200 400 l 1,20,-1
 300 500 l 1,21,-1
 700 500 l 1,0,-1
EndSplineSet
Validated: 5
EndChar

StartChar: h
Encoding: 104 104 75
Width: 1000
GlyphClass: 2
Flags: W
LayerCount: 2
Fore
SplineSet
200 800 m 1,0,-1
 300 800 l 1,1,-1
 300 500 l 1,2,-1
 700 500 l 1,3,-1
 800 400 l 1,4,-1
 800 0 l 1,5,-1
 700 0 l 1,6,-1
 700 350 l 1,7,-1
 650 400 l 1,8,-1
 300 400 l 1,9,-1
 300 0 l 1,10,-1
 200 0 l 1,11,-1
 200 800 l 1,0,-1
EndSplineSet
Validated: 1
EndChar

StartChar: i
Encoding: 105 105 76
Width: 1000
GlyphClass: 2
Flags: W
LayerCount: 2
Fore
SplineSet
450 700 m 1,0,-1
 550 700 l 1,1,-1
 550 600 l 1,2,-1
 450 600 l 1,3,-1
 450 700 l 1,0,-1
400 500 m 1,4,-1
 500 500 l 1,5,-1
 550 450 l 1,6,-1
 550 100 l 1,7,-1
 600 100 l 1,8,-1
 600 0 l 1,9,-1
 500 0 l 1,10,-1
 450 50 l 1,11,-1
 450 400 l 1,12,-1
 400 400 l 1,13,-1
 400 500 l 1,4,-1
EndSplineSet
Validated: 1
EndChar

StartChar: j
Encoding: 106 106 77
Width: 1000
GlyphClass: 2
Flags: W
LayerCount: 2
Fore
SplineSet
450 700 m 1,0,-1
 550 700 l 1,1,-1
 550 600 l 1,2,-1
 450 600 l 1,3,-1
 450 700 l 1,0,-1
400 500 m 1,4,-1
 500 500 l 1,5,-1
 550 450 l 1,6,-1
 550 0 l 1,7,-1
 450 -100 l 1,8,-1
 300 -100 l 1,9,-1
 300 0 l 1,10,-1
 400 0 l 1,11,-1
 450 50 l 1,12,-1
 450 400 l 1,13,-1
 400 400 l 1,14,-1
 400 500 l 1,4,-1
EndSplineSet
Validated: 1
EndChar

StartChar: k
Encoding: 107 107 78
Width: 1000
GlyphClass: 2
Flags: W
LayerCount: 2
Fore
SplineSet
275 800 m 1,0,-1
 375 800 l 1,1,-1
 375 300 l 1,2,-1
 475 300 l 1,3,-1
 675 500 l 1,4,-1
 750 500 l 1,5,-1
 750 425 l 1,6,-1
 575 250 l 1,7,-1
 750 75 l 1,8,-1
 750 0 l 1,9,-1
 675 0 l 1,10,-1
 475 200 l 1,11,-1
 375 200 l 1,12,-1
 375 0 l 1,13,-1
 275 0 l 1,14,-1
 275 800 l 1,0,-1
EndSplineSet
Validated: 1
EndChar

StartChar: l
Encoding: 108 108 79
Width: 1000
GlyphClass: 2
Flags: W
LayerCount: 2
Fore
SplineSet
400 800 m 1,0,-1
 500 800 l 1,1,-1
 550 750 l 1,2,-1
 550 100 l 1,3,-1
 600 100 l 1,4,-1
 600 0 l 1,5,-1
 500 0 l 1,6,-1
 450 50 l 1,7,-1
 450 700 l 1,8,-1
 400 700 l 1,9,-1
 400 800 l 1,0,-1
EndSplineSet
Validated: 1
EndChar

StartChar: m
Encoding: 109 109 80
Width: 1000
GlyphClass: 2
Flags: W
LayerCount: 2
Fore
SplineSet
200 0 m 1,0,-1
 200 400 l 1,1,-1
 300 500 l 1,2,-1
 450 500 l 1,3,-1
 500 450 l 1,4,-1
 550 500 l 1,5,-1
 700 500 l 1,6,-1
 800 400 l 1,7,-1
 800 0 l 1,8,-1
 700 0 l 1,9,-1
 700 350 l 1,10,-1
 650 400 l 1,11,-1
 600 400 l 1,12,-1
 550 350 l 1,13,-1
 550 0 l 1,14,-1
 450 0 l 1,15,-1
 450 350 l 1,16,-1
 400 400 l 1,17,-1
 350 400 l 1,18,-1
 300 350 l 1,19,-1
 300 0 l 1,20,-1
 200 0 l 1,0,-1
EndSplineSet
Validated: 1
EndChar

StartChar: n
Encoding: 110 110 81
Width: 1000
GlyphClass: 2
Flags: W
LayerCount: 2
Fore
SplineSet
200 0 m 1,0,-1
 200 400 l 1,1,-1
 300 500 l 1,2,-1
 700 500 l 1,3,-1
 800 400 l 1,4,-1
 800 0 l 1,5,-1
 700 0 l 1,6,-1
 700 350 l 1,7,-1
 650 400 l 1,8,-1
 350 400 l 1,9,-1
 300 350 l 1,10,-1
 300 0 l 1,11,-1
 200 0 l 1,0,-1
EndSplineSet
Validated: 1
EndChar

StartChar: o
Encoding: 111 111 82
Width: 1000
GlyphClass: 2
Flags: W
LayerCount: 2
Fore
SplineSet
200 100 m 1,0,-1
 200 400 l 1,1,-1
 300 500 l 1,2,-1
 700 500 l 1,3,-1
 800 400 l 1,4,-1
 800 100 l 1,5,-1
 700 0 l 1,6,-1
 500 0 l 1,7,-1
 500 100 l 1,8,-1
 650 100 l 1,9,-1
 700 150 l 1,10,-1
 700 350 l 1,11,-1
 650 400 l 1,12,-1
 350 400 l 1,13,-1
 300 350 l 1,14,-1
 300 150 l 1,15,-1
 350 100 l 1,16,-1
 500 100 l 1,17,-1
 500 0 l 1,18,-1
 300 0 l 1,19,-1
 200 100 l 1,0,-1
EndSplineSet
Validated: 5
EndChar

StartChar: p
Encoding: 112 112 83
Width: 1000
GlyphClass: 2
Flags: W
LayerCount: 2
Fore
SplineSet
200 -200 m 1,0,-1
 300 -200 l 1,1,-1
 300 0 l 1,2,-1
 700 0 l 1,3,-1
 800 100 l 1,4,-1
 800 400 l 1,5,-1
 700 500 l 1,6,-1
 200 500 l 1,7,-1
 200 400 l 1,8,-1
 200 100 l 1,9,-1
 300 100 l 1,10,-1
 300 400 l 1,11,-1
 650 400 l 1,12,-1
 700 350 l 1,13,-1
 700 150 l 1,14,-1
 650 100 l 1,15,-1
 200 100 l 1,16,-1
 200 -200 l 1,0,-1
EndSplineSet
Validated: 5
EndChar

StartChar: q
Encoding: 113 113 84
Width: 1000
GlyphClass: 2
Flags: W
LayerCount: 2
Fore
SplineSet
800 -200 m 1,0,-1
 700 -200 l 1,1,-1
 700 0 l 1,2,-1
 300 0 l 1,3,-1
 200 100 l 1,4,-1
 200 400 l 1,5,-1
 300 500 l 1,6,-1
 800 500 l 1,7,-1
 800 400 l 1,8,-1
 800 100 l 1,9,-1
 700 100 l 1,10,-1
 700 400 l 1,11,-1
 350 400 l 1,12,-1
 300 350 l 1,13,-1
 300 150 l 1,14,-1
 350 100 l 1,15,-1
 800 100 l 1,16,-1
 800 -200 l 1,0,-1
EndSplineSet
Validated: 5
EndChar

StartChar: r
Encoding: 114 114 85
Width: 1000
GlyphClass: 2
Flags: W
LayerCount: 2
Fore
SplineSet
300 0 m 1,0,-1
 300 400 l 1,1,-1
 400 500 l 1,2,-1
 700 500 l 1,3,-1
 700 400 l 1,4,-1
 450 400 l 1,5,-1
 400 350 l 1,6,-1
 400 0 l 1,7,-1
 300 0 l 1,0,-1
EndSplineSet
Validated: 1
EndChar

StartChar: s
Encoding: 115 115 86
Width: 1000
GlyphClass: 2
Flags: W
LayerCount: 2
Fore
SplineSet
200 0 m 1,0,-1
 200 100 l 1,1,-1
 650 100 l 1,2,-1
 700 150 l 1,3,-1
 650 200 l 1,4,-1
 300 200 l 1,5,-1
 200 300 l 1,6,-1
 200 400 l 1,7,-1
 300 500 l 1,8,-1
 800 500 l 1,9,-1
 800 400 l 1,10,-1
 350 400 l 1,11,-1
 300 350 l 1,12,-1
 350 300 l 1,13,-1
 700 300 l 1,14,-1
 800 200 l 1,15,-1
 800 100 l 1,16,-1
 700 0 l 1,17,-1
 200 0 l 1,0,-1
EndSplineSet
Validated: 1
EndChar

StartChar: t
Encoding: 116 116 87
Width: 1000
GlyphClass: 2
Flags: W
LayerCount: 2
Fore
SplineSet
450 800 m 1,0,-1
 450 500 l 1,1,-1
 350 500 l 1,2,-1
 350 400 l 1,3,-1
 450 400 l 1,4,-1
 450 100 l 1,5,-1
 550 0 l 1,6,-1
 650 0 l 1,7,-1
 650 100 l 1,8,-1
 600 100 l 1,9,-1
 550 150 l 1,10,-1
 550 400 l 1,11,-1
 650 400 l 1,12,-1
 650 500 l 1,13,-1
 550 500 l 1,14,-1
 550 800 l 1,15,-1
 450 800 l 1,0,-1
EndSplineSet
Validated: 9
EndChar

StartChar: u
Encoding: 117 117 88
Width: 1000
GlyphClass: 2
Flags: W
LayerCount: 2
Fore
SplineSet
200 500 m 1,0,-1
 200 100 l 1,1,-1
 300 0 l 1,2,-1
 700 0 l 1,3,-1
 800 100 l 1,4,-1
 800 500 l 1,5,-1
 700 500 l 1,6,-1
 700 150 l 1,7,-1
 650 100 l 1,8,-1
 350 100 l 1,9,-1
 300 150 l 1,10,-1
 300 500 l 1,11,-1
 200 500 l 1,0,-1
EndSplineSet
Validated: 9
EndChar

StartChar: v
Encoding: 118 118 89
Width: 1000
GlyphClass: 2
Flags: W
LayerCount: 2
Fore
SplineSet
200 500 m 1,0,-1
 300 500 l 1,1,-1
 300 350 l 1,2,-1
 500 150 l 1,3,-1
 700 350 l 1,4,-1
 700 500 l 1,5,-1
 800 500 l 1,6,-1
 800 300 l 1,7,-1
 500 0 l 1,8,-1
 200 300 l 1,9,-1
 200 500 l 1,0,-1
EndSplineSet
Validated: 1
EndChar

StartChar: w
Encoding: 119 119 90
Width: 1000
GlyphClass: 2
Flags: W
LayerCount: 2
Fore
SplineSet
200 500 m 1,0,-1
 200 100 l 1,1,-1
 300 0 l 1,2,-1
 450 0 l 1,3,-1
 500 50 l 1,4,-1
 550 0 l 1,5,-1
 700 0 l 1,6,-1
 800 100 l 1,7,-1
 800 500 l 1,8,-1
 700 500 l 1,9,-1
 700 150 l 1,10,-1
 650 100 l 1,11,-1
 600 100 l 1,12,-1
 550 150 l 1,13,-1
 550 500 l 1,14,-1
 450 500 l 1,15,-1
 450 150 l 1,16,-1
 400 100 l 1,17,-1
 350 100 l 1,18,-1
 300 150 l 1,19,-1
 300 500 l 1,20,-1
 200 500 l 1,0,-1
EndSplineSet
Validated: 9
EndChar

StartChar: x
Encoding: 120 120 91
Width: 1000
GlyphClass: 2
Flags: W
LayerCount: 2
Fore
SplineSet
400 250 m 1,0,-1
 250 400 l 1,1,-1
 250 500 l 1,2,-1
 350 500 l 1,3,-1
 500 350 l 1,4,-1
 650 500 l 1,5,-1
 750 500 l 1,6,-1
 750 400 l 1,7,-1
 600 250 l 1,8,-1
 750 100 l 1,9,-1
 750 0 l 1,10,-1
 650 0 l 1,11,-1
 500 150 l 1,12,-1
 350 0 l 1,13,-1
 250 0 l 1,14,-1
 250 100 l 1,15,-1
 400 250 l 1,0,-1
EndSplineSet
Validated: 1
EndChar

StartChar: y
Encoding: 121 121 92
Width: 1002
GlyphClass: 2
Flags: W
LayerCount: 2
Fore
SplineSet
300 500 m 1,0,-1
 300 150 l 1,1,-1
 350 100 l 1,2,-1
 700 100 l 1,3,-1
 700 500 l 1,4,-1
 800 500 l 1,5,-1
 800 -100 l 1,6,-1
 700 -200 l 1,7,-1
 200 -200 l 1,8,-1
 200 -100 l 1,9,-1
 650 -100 l 1,10,-1
 700 -50 l 1,11,-1
 700 0 l 1,12,-1
 300 0 l 1,13,-1
 200 100 l 1,14,-1
 200 500 l 1,15,-1
 300 500 l 1,0,-1
EndSplineSet
Validated: 1
EndChar

StartChar: z
Encoding: 122 122 93
Width: 1000
GlyphClass: 2
Flags: W
LayerCount: 2
Fore
SplineSet
275 0 m 1,0,-1
 275 100 l 1,1,-1
 575 400 l 1,2,-1
 275 400 l 1,3,-1
 275 500 l 1,4,-1
 725 500 l 1,5,-1
 725 400 l 1,6,-1
 425 100 l 1,7,-1
 725 100 l 1,8,-1
 725 0 l 1,9,-1
 275 0 l 1,0,-1
EndSplineSet
Validated: 1
EndChar

StartChar: braceleft
Encoding: 123 123 94
Width: 1000
GlyphClass: 2
Flags: W
LayerCount: 2
Fore
SplineSet
400 700 m 1,0,-1
 500 800 l 1,1,-1
 600 800 l 1,2,-1
 600 700 l 1,3,-1
 500 600 l 1,4,-1
 500 450 l 1,5,-1
 450 400 l 1,6,-1
 500 350 l 1,7,-1
 500 200 l 1,8,-1
 600 100 l 1,9,-1
 600 0 l 1,10,-1
 500 0 l 1,11,-1
 400 100 l 1,12,-1
 400 300 l 1,13,-1
 350 350 l 1,14,-1
 300 350 l 1,15,-1
 300 450 l 1,16,-1
 350 450 l 1,17,-1
 400 500 l 1,18,-1
 400 700 l 1,0,-1
EndSplineSet
Validated: 1
EndChar

StartChar: bar
Encoding: 124 124 95
Width: 1000
GlyphClass: 2
Flags: W
LayerCount: 2
Fore
SplineSet
450 0 m 1,0,-1
 450 800 l 1,1,-1
 550 800 l 1,2,-1
 550 0 l 1,3,-1
 450 0 l 1,0,-1
EndSplineSet
Validated: 1
EndChar

StartChar: braceright
Encoding: 125 125 96
Width: 1000
GlyphClass: 2
Flags: W
LayerCount: 2
Fore
SplineSet
600 700 m 1,0,-1
 500 800 l 1,1,-1
 400 800 l 1,2,-1
 400 700 l 1,3,-1
 500 600 l 1,4,-1
 500 450 l 1,5,-1
 550 400 l 1,6,-1
 500 350 l 1,7,-1
 500 200 l 1,8,-1
 400 100 l 1,9,-1
 400 0 l 1,10,-1
 500 0 l 1,11,-1
 600 100 l 1,12,-1
 600 300 l 1,13,-1
 650 350 l 1,14,-1
 700 350 l 1,15,-1
 700 450 l 1,16,-1
 650 450 l 1,17,-1
 600 500 l 1,18,-1
 600 700 l 1,0,-1
EndSplineSet
Validated: 9
EndChar

StartChar: asciitilde
Encoding: 126 126 97
Width: 1000
GlyphClass: 2
Flags: W
LayerCount: 2
Fore
SplineSet
200 400 m 1,0,-1
 350 550 l 1,1,-1
 450 550 l 1,2,-1
 600 400 l 1,3,-1
 700 500 l 1,4,-1
 800 500 l 1,5,-1
 800 400 l 1,6,-1
 650 250 l 1,7,-1
 550 250 l 1,8,-1
 400 400 l 1,9,-1
 300 300 l 1,10,-1
 200 300 l 1,11,-1
 200 400 l 1,0,-1
EndSplineSet
Validated: 1
EndChar

StartChar: notequal
Encoding: 8800 8800 98
Width: 2000
GlyphClass: 3
LigCaretCntFixed: 1
Flags: W
LayerCount: 2
Fore
SplineSet
1250 750 m 1,0,-1
 1350 750 l 1,1,-1
 1350 650 l 1,2,-1
 750 50 l 1,3,-1
 650 50 l 1,4,-1
 650 150 l 1,5,-1
 1250 750 l 1,0,-1
200 500 m 1,6,-1
 200 600 l 1,7,-1
 1800 600 l 1,8,-1
 1800 500 l 1,9,-1
 200 500 l 1,6,-1
200 200 m 1,10,-1
 200 300 l 1,11,-1
 1800 300 l 1,12,-1
 1800 200 l 1,13,-1
 200 200 l 1,10,-1
EndSplineSet
Validated: 5
Ligature2: "'liga' Standard Ligatures in Latin lookup 0 subtable" exclam equal
LCarets2: 1 1000
EndChar

StartChar: lessequal
Encoding: 8804 8804 99
Width: 2000
GlyphClass: 3
LigCaretCntFixed: 1
Flags: W
LayerCount: 2
Fore
SplineSet
400 300 m 1,0,-1
 200 500 l 1,1,-1
 400 700 l 1,2,-1
 1800 700 l 1,3,-1
 1800 600 l 1,4,-1
 450 600 l 1,5,-1
 350 500 l 1,6,-1
 450 400 l 1,7,-1
 1800 400 l 1,8,-1
 1800 300 l 1,9,-1
 400 300 l 1,0,-1
200 100 m 1,10,-1
 200 200 l 1,11,-1
 1800 200 l 1,12,-1
 1800 100 l 1,13,-1
 200 100 l 1,10,-1
EndSplineSet
Validated: 1
Ligature2: "'liga' Standard Ligatures in Latin lookup 0 subtable" less equal
LCarets2: 1 1000
EndChar

StartChar: greaterequal
Encoding: 8805 8805 100
Width: 2000
GlyphClass: 3
LigCaretCntFixed: 1
Flags: W
LayerCount: 2
Fore
SplineSet
1600 300 m 1,0,-1
 1800 500 l 1,1,-1
 1600 700 l 1,2,-1
 200 700 l 1,3,-1
 200 600 l 1,4,-1
 1550 600 l 1,5,-1
 1650 500 l 1,6,-1
 1550 400 l 1,7,-1
 200 400 l 1,8,-1
 200 300 l 1,9,-1
 1600 300 l 1,0,-1
1800 100 m 1,10,-1
 1800 200 l 1,11,-1
 200 200 l 1,12,-1
 200 100 l 1,13,-1
 1800 100 l 1,10,-1
EndSplineSet
Validated: 9
Ligature2: "'liga' Standard Ligatures in Latin lookup 0 subtable" greater equal
LCarets2: 1 1000
EndChar

StartChar: uni3D_uni3D
Encoding: 10869 10869 101
Width: 2000
GlyphClass: 3
LigCaretCntFixed: 1
Flags: W
LayerCount: 2
Fore
SplineSet
200 300 m 1,0,-1
 975 300 l 1,1,-1
 1000 275 l 1,2,-1
 1025 300 l 1,3,-1
 1800 300 l 1,4,-1
 1800 200 l 1,5,-1
 1025 200 l 1,6,-1
 1000 225 l 1,7,-1
 975 200 l 1,8,-1
 200 200 l 1,9,-1
 200 300 l 1,0,-1
200 600 m 1,10,-1
 975 600 l 1,11,-1
 1000 575 l 1,12,-1
 1025 600 l 1,13,-1
 1800 600 l 1,14,-1
 1800 500 l 1,15,-1
 1025 500 l 1,16,-1
 1000 525 l 1,17,-1
 975 500 l 1,18,-1
 200 500 l 1,19,-1
 200 600 l 1,10,-1
EndSplineSet
Validated: 1
Ligature2: "'liga' Standard Ligatures in Latin lookup 0 subtable" equal equal
LCarets2: 1 1000
EndChar

StartChar: uni3D_uni3D_uni3D
Encoding: 10870 10870 102
Width: 3000
GlyphClass: 3
LigCaretCntFixed: 1
Flags: W
LayerCount: 2
Fore
SplineSet
200 300 m 1,0,-1
 975 300 l 1,1,-1
 1000 275 l 1,2,-1
 1025 300 l 1,3,-1
 1975 300 l 1,4,-1
 2000 275 l 1,5,-1
 2025 300 l 1,6,-1
 2800 300 l 1,7,-1
 2800 200 l 1,8,-1
 2025 200 l 1,9,-1
 2000 225 l 1,10,-1
 1975 200 l 1,11,-1
 1025 200 l 1,12,-1
 1000 225 l 1,13,-1
 975 200 l 1,14,-1
 200 200 l 1,15,-1
 200 300 l 1,0,-1
200 600 m 1,16,-1
 975 600 l 1,17,-1
 1000 575 l 1,18,-1
 1025 600 l 1,19,-1
 1975 600 l 1,20,-1
 2000 575 l 1,21,-1
 2025 600 l 1,22,-1
 2800 600 l 1,23,-1
 2800 500 l 1,24,-1
 2025 500 l 1,25,-1
 2000 525 l 1,26,-1
 1975 500 l 1,27,-1
 1025 500 l 1,28,-1
 1000 525 l 1,29,-1
 975 500 l 1,30,-1
 200 500 l 1,31,-1
 200 600 l 1,16,-1
EndSplineSet
Validated: 1
Ligature2: "'liga' Standard Ligatures in Latin lookup 0 subtable" equal equal equal
LCarets2: 2 1000 2000
EndChar

StartChar: uniFFFD
Encoding: 65533 65533 103
Width: 1000
GlyphClass: 2
Flags: W
LayerCount: 2
Fore
SplineSet
483 291 m 1,0,-1
 521 291 l 1,1,-1
 521 261 l 1,2,-1
 483 261 l 1,3,-1
 483 291 l 1,0,-1
390 501 m 1,4,-1
 577 501 l 1,5,-1
 614 471 l 1,6,-1
 614 411 l 1,7,-1
 577 381 l 1,8,-1
 521 381 l 1,9,-1
 521 321 l 1,10,-1
 483 321 l 1,11,-1
 483 381 l 1,12,-1
 521 411 l 1,13,-1
 577 411 l 1,14,-1
 577 471 l 1,15,-1
 390 471 l 1,16,-1
 390 501 l 1,4,-1
500 800 m 1,17,-1
 900 400 l 1,18,-1
 500 0 l 1,19,-1
 100 400 l 1,20,-1
 450 750 l 1,21,22
 450 750 450 750 462.5 737.5 c 128,-1,23
 475 725 475 725 487.5 712.5 c 128,-1,24
 500 700 500 700 500 700 c 1,25,-1
 200 400 l 1,26,-1
 500 100 l 1,27,-1
 800 400 l 1,28,-1
 450 750 l 1,29,-1
 500 800 l 1,17,-1
EndSplineSet
Validated: 5
EndChar

StartChar: u1F339
Encoding: 127801 127801 104
Width: 1000
GlyphClass: 2
Flags: W
LayerCount: 2
Fore
SplineSet
425 -200 m 1,0,-1
 375 -150 l 0,1,-1
 425 -100 l 1,2,-1
 425 -200 l 1,0,-1
575 -100 m 1,3,-1
 625 -150 l 0,4,-1
 575 -200 l 1,5,-1
 575 -100 l 1,3,-1
575 25 m 1,6,-1
 625 -25 l 0,7,-1
 575 -75 l 1,8,-1
 575 25 l 1,6,-1
425 50 m 1,9,-1
 375 100 l 0,10,-1
 425 150 l 1,11,-1
 425 50 l 1,9,-1
425 -75 m 1,12,-1
 375 -25 l 0,13,-1
 425 25 l 1,14,-1
 425 -75 l 1,12,-1
575 150 m 1,15,-1
 625 100 l 0,16,-1
 575 50 l 1,17,-1
 575 150 l 1,15,-1
400 700 m 1,18,-1
 350 750 l 0,19,-1
 400 800 l 1,20,-1
 600 800 l 1,21,-1
 650 750 l 0,22,-1
 600 700 l 1,23,-1
 400 700 l 1,18,-1
200 700 m 1,24,-1
 350 700 l 1,25,-1
 400 650 l 1,26,-1
 600 650 l 1,27,-1
 650 700 l 1,28,-1
 800 700 l 1,29,-1
 700 600 l 1,30,-1
 700 500 l 1,31,-1
 800 400 l 1,32,-1
 800 300 l 1,33,-1
 700 200 l 1,34,-1
 550 200 l 0,35,-1
 550 -200 l 0,36,-1
 450 -200 l 0,37,-1
 450 200 l 0,38,-1
 300 200 l 1,39,-1
 200 300 l 1,40,-1
 200 400 l 1,41,-1
 300 500 l 1,42,-1
 300 600 l 1,43,-1
 200 700 l 1,24,-1
EndSplineSet
Validated: 1
EndChar

StartChar: SlugSpeak
Encoding: 983040 983040 105
Width: 6002
GlyphClass: 2
Flags: W
LayerCount: 2
Fore
SplineSet
4875 -100 m 1
 5400 -100 l 1
 5500 0 l 0
 5500 450 l 1
 5400 550 l 0
 2600 550 l 1
 2600 650 l 1
 5050 650 l 0
 5050 800 l 0
 5150 800 l 0
 5150 650 l 0
 5250 650 l 0
 5250 800 l 0
 5350 800 l 0
 5350 650 l 0
 5450 650 l 0
 5600 500 l 1
 5600 200 l 0
 5700 200 l 0
 5700 100 l 0
 5600 100 l 0
 5600 -50 l 1
 5450 -200 l 0
 4775 -200 l 1
 4875 -100 l 1
750 650 m 1
 2400 650 l 1
 2400 550 l 1
 800 550 l 1
 500 250 l 0
 500 -100 l 1
 4150 -100 l 1
 4150 -200 l 1
 400 -200 l 1
 400 300 l 0
 750 650 l 1
EndSplineSet
Refer: 74 103 N 1 0 0 1 4000 0 2
Refer: 88 117 N 1 0 0 1 3000 0 2
Refer: 79 108 N 1 0 0 1 2000 0 2
Refer: 86 115 N 1 0 0 1 1000 0 2
Validated: 32773
LCarets2: 5 1000 2000 3000 4000 5000
Ligature2: "'liga' Standard Ligatures in Latin lookup 0 subtable" bracketleft s l u g bracketright
EndChar

StartChar: RoseSpeak
Encoding: 983041 983041 106
Width: 6000
GlyphClass: 2
Flags: W
LayerCount: 2
Fore
SplineSet
2400 500 m 5
 2350 550 l 4
 2400 600 l 5
 2600 600 l 5
 2650 550 l 4
 2600 500 l 5
 2400 500 l 5
2200 500 m 5
 2350 500 l 5
 2400 450 l 5
 2600 450 l 5
 2650 500 l 5
 2800 500 l 5
 2700 400 l 5
 2700 300 l 5
 2800 200 l 5
 2800 100 l 5
 2700 0 l 5
 2550 0 l 4
 2550 -50 l 4
 2450 -50 l 4
 2450 0 l 4
 2300 0 l 5
 2200 100 l 5
 2200 200 l 5
 2300 300 l 5
 2300 400 l 5
 2200 500 l 5
400 800 m 1
 600 800 l 1
 600 700 l 1
 500 700 l 1
 500 -100 l 1
 5500 -100 l 1
 5500 700 l 1
 5400 700 l 1
 5400 800 l 1
 5600 800 l 1
 5600 -200 l 1
 400 -200 l 1
 400 800 l 1
EndSplineSet
Refer: 72 101 N 1 0 0 1 4000 0 2
Refer: 86 115 N 1 0 0 1 3000 0 2
Refer: 53 82 N 1 0 0 1 1000 0 2
Validated: 32773
LCarets2: 5 1000 2000 3000 4000 5000
Ligature2: "'liga' Standard Ligatures in Latin lookup 0 subtable" bracketleft R o s e bracketright
EndChar

StartChar: u1F337
Encoding: 127799 127799 107
Width: 1000
Flags: W
LayerCount: 2
Fore
SplineSet
400 700 m 1,0,-1
 350 750 l 0,1,-1
 400 800 l 1,2,-1
 600 800 l 1,3,-1
 650 750 l 0,4,-1
 600 700 l 1,5,-1
 400 700 l 1,0,-1
200 700 m 1,6,-1
 350 700 l 1,7,-1
 400 650 l 1,8,-1
 600 650 l 1,9,-1
 650 700 l 1,10,-1
 800 700 l 1,11,-1
 700 600 l 1,12,-1
 700 500 l 1,13,-1
 800 400 l 1,14,-1
 800 300 l 1,15,-1
 700 200 l 1,16,-1
 550 200 l 0,17,-1
 550 -200 l 0,18,-1
 450 -200 l 0,19,-1
 450 200 l 0,20,-1
 300 200 l 1,21,-1
 200 300 l 1,22,-1
 200 400 l 1,23,-1
 300 500 l 1,24,-1
 300 600 l 1,25,-1
 200 700 l 1,6,-1
EndSplineSet
Validated: 1
EndChar

StartChar: uni237C
Encoding: 9084 9084 108
Width: 1000
LayerCount: 2
Fore
SplineSet
200 800 m 1,0,-1
 300 800 l 1,1,-1
 300 775 l 1,2,-1
 325 800 l 1,3,-1
 375 800 l 1,4,-1
 375 750 l 1,5,-1
 300 675 l 1,6,-1
 300 362.5 l 1,7,-1
 450 200 l 1,8,-1
 350 100 l 1,9,-1
 800 100 l 1,10,-1
 800 0 l 1,11,-1
 250 0 l 1,12,-1
 225 -25 l 1,13,-1
 300 -100 l 1,14,-1
 100 -100 l 1,15,-1
 100 100 l 1,16,-1
 175 25 l 1,17,-1
 200 50 l 1,18,-1
 200 362.5 l 1,19,-1
 50 525 l 1,20,-1
 200 675 l 1,21,-1
 200 800 l 1,0,-1
200 470.833333333 m 1,22,-1
 200 575 l 1,23,-1
 150 525 l 1,24,-1
 200 470.833333333 l 1,22,-1
300 254.166666667 m 1,25,-1
 300 150 l 1,26,-1
 350 200 l 1,27,-1
 300 254.166666667 l 1,25,-1
EndSplineSet
Validated: 1
EndChar

StartChar: cent
Encoding: 162 162 112
Width: 1000
LayerCount: 2
Fore
SplineSet
450 600 m 1
 550 600 l 1
 550 -100 l 1
 450 -100 l 1
 450 600 l 1
EndSplineSet
Refer: 70 99 N 1 0 0 1 0 0 3
Validated: 32773
Decomposition: "c"
EndChar

StartChar: uni0307
Encoding: 775 775 117
Width: 1000
Flags: W
LayerCount: 2
Fore
SplineSet
450 850 m 5,0,-1
 450 950 l 5,1,-1
 550 950 l 5,2,-1
 550 850 l 5,3,-1
 450 850 l 5,0,-1
EndSplineSet
Validated: 1
EndChar

StartChar: uni0308
Encoding: 776 776 118
Width: 1000
Flags: W
LayerCount: 2
Fore
SplineSet
550 850 m 1,0,-1
 550 950 l 1,1,-1
 650 950 l 1,2,-1
 650 850 l 1,3,-1
 550 850 l 1,0,-1
350 850 m 1,4,-1
 350 950 l 1,5,-1
 450 950 l 1,6,-1
 450 850 l 1,7,-1
 350 850 l 1,4,-1
EndSplineSet
Validated: 1
EndChar

StartChar: uni030A
Encoding: 778 778 119
Width: 1000
Flags: W
LayerCount: 2
Fore
SplineSet
500 950 m 1,0,-1
 550 1000 l 1,1,-1
 500 1050 l 1,2,-1
 450 1000 l 1,3,-1
 500 950 l 1,0,-1
450 850 m 1,4,-1
 350 950 l 1,5,-1
 350 1050 l 0,6,7
 350 1050 350 1050 450 1150 c 0,8,9
 450 1150 450 1150 550 1150 c 0,10,11
 550 1150 550 1150 650 1050 c 0,12,13
 650 1050 650 1050 650 950 c 1,14,-1
 550 850 l 1,15,-1
 450 850 l 1,4,-1
EndSplineSet
Validated: 1
EndChar

StartChar: uni0304
Encoding: 772 772 120
Width: 1000
Flags: W
LayerCount: 2
Fore
SplineSet
200 850 m 1,0,-1
 200 950 l 1,1,-1
 800 950 l 1,2,-1
 800 850 l 1,3,-1
 200 850 l 1,0,-1
EndSplineSet
Validated: 1
EndChar

StartChar: brokenbar
Encoding: 166 166 121
Width: 1000
Flags: W
LayerCount: 2
Fore
SplineSet
450 450 m 1,0,-1
 450 800 l 1,1,-1
 550 800 l 1,2,-1
 550 450 l 1,3,-1
 450 450 l 1,0,-1
450 0 m 1,4,-1
 450 350 l 1,5,-1
 550 350 l 1,6,-1
 550 0 l 1,7,-1
 450 0 l 1,4,-1
EndSplineSet
Validated: 1
EndChar

StartChar: section
Encoding: 167 167 127
Width: 1000
Flags: W
LayerCount: 2
Fore
SplineSet
200 0 m 1,0,-1
 200 100 l 1,1,-1
 650 100 l 1,2,-1
 700 150 l 1,3,-1
 700 250 l 1,4,-1
 650 300 l 1,5,-1
 500 300 l 1,6,-1
 300 300 l 1,7,-1
 200 400 l 1,8,-1
 200 500 l 1,9,-1
 250 550 l 1,10,-1
 200 600 l 1,11,-1
 200 700 l 1,12,-1
 300 800 l 1,13,-1
 800 800 l 1,14,-1
 800 700 l 1,15,-1
 350 700 l 1,16,-1
 300 650 l 1,17,-1
 350 600 l 1,18,-1
 680 600 l 1,19,-1
 700 600 l 1,20,-1
 800 500 l 1,21,-1
 800 400 l 1,22,-1
 750 350 l 1,23,-1
 800 300 l 1,24,-1
 800 100 l 1,25,-1
 700 0 l 1,26,-1
 200 0 l 1,0,-1
500 400 m 1,27,-1
 650 400 l 1,28,-1
 700 450 l 1,29,-1
 650 500 l 1,30,-1
 350 500 l 1,31,-1
 300 450 l 1,32,-1
 350 400 l 1,33,-1
 500 400 l 1,27,-1
EndSplineSet
Validated: 1
EndChar

StartChar: sterling
Encoding: 163 163 128
Width: 1000
Flags: W
LayerCount: 2
Fore
SplineSet
350 800 m 1,0,-1
 700 800 l 0,1,2
 700 800 700 800 800 700 c 1,3,-1
 800 600 l 1,4,-1
 700 600 l 0,5,6
 700 600 700 600 700 650 c 0,7,8
 700 650 700 650 650 700 c 0,9,10
 650 700 650 700 400 700 c 1,11,-1
 350 650 l 1,12,-1
 350 500 l 1,13,-1
 550 500 l 1,14,-1
 550 400 l 1,15,-1
 350 400 l 1,16,-1
 350 100 l 1,17,-1
 800 100 l 1,18,-1
 800 0 l 1,19,-1
 300 0 l 1,20,-1
 200 0 l 1,21,-1
 200 100 l 1,22,-1
 250 150 l 1,23,-1
 250 400 l 1,24,-1
 150 400 l 1,25,-1
 150 500 l 1,26,-1
 250 500 l 1,27,-1
 250 700 l 1,28,-1
 350 800 l 1,0,-1
EndSplineSet
Validated: 1
EndChar

StartChar: currency
Encoding: 164 164 129
Width: 1000
Flags: W
LayerCount: 2
Fore
SplineSet
250 200 m 9,0,-1
 250 500 l 1,1,-1
 150 600 l 0,2,3
 150 600 150 600 250 700 c 0,4,5
 250 700 250 700 350 600 c 1,6,-1
 650 600 l 1,7,-1
 750 700 l 0,8,9
 750 700 750 700 850 600 c 0,10,11
 850 600 850 600 750 500 c 1,12,-1
 750 200 l 1,13,-1
 850 100 l 0,14,15
 850 100 850 100 750 0 c 0,16,17
 750 0 750 0 650 100 c 1,18,-1
 350 100 l 1,19,-1
 250 0 l 0,20,21
 250 0 250 0 150 100 c 0,22,23
 150 100 150 100 250 200 c 9,0,-1
600 200 m 1,24,-1
 650 250 l 1,25,-1
 650 450 l 1,26,-1
 600 500 l 1,27,-1
 400 500 l 1,28,-1
 350 450 l 1,29,-1
 350 250 l 1,30,-1
 400 200 l 1,31,-1
 600 200 l 1,24,-1
EndSplineSet
Validated: 1
EndChar

StartChar: yen
Encoding: 165 165 130
Width: 1000
Flags: W
LayerCount: 2
Fore
SplineSet
200 800 m 1,0,-1
 300 800 l 1,1,-1
 300 700 l 1,2,-1
 500 500 l 1,3,-1
 700 700 l 1,4,-1
 700 800 l 1,5,-1
 800 800 l 1,6,-1
 800 650 l 1,7,-1
 550 400 l 1,8,-1
 800 400 l 1,9,-1
 800 300 l 1,10,-1
 550 300 l 1,11,-1
 550 250 l 1,12,-1
 800 250 l 1,13,-1
 800 150 l 1,14,-1
 550 150 l 1,15,-1
 550 0 l 1,16,-1
 450 0 l 1,17,-1
 450 150 l 1,18,-1
 200 150 l 1,19,-1
 200 250 l 1,20,-1
 450 250 l 1,21,-1
 450 300 l 1,22,-1
 200 300 l 1,23,-1
 200 400 l 1,24,-1
 450 400 l 1,25,-1
 200 650 l 1,26,-1
 200 800 l 1,0,-1
EndSplineSet
Validated: 1
EndChar

StartChar: dotlessi
Encoding: 305 305 241
Width: 1000
Flags: W
LayerCount: 2
Fore
SplineSet
400 500 m 1,0,-1
 500 500 l 1,1,-1
 550 450 l 1,2,-1
 550 100 l 1,3,-1
 600 100 l 1,4,-1
 600 0 l 1,5,-1
 500 0 l 1,6,-1
 450 50 l 1,7,-1
 450 400 l 1,8,-1
 400 400 l 1,9,-1
 400 500 l 1,0,-1
EndSplineSet
Validated: 1
EndChar

StartChar: uni2625
Encoding: 9765 9765 246
Width: 1000
LayerCount: 2
Fore
SplineSet
450 700 m 1,0,-1
 400 650 l 0,1,2
 400 650 400 650 400 600 c 0,3,4
 400 600 400 600 500 500 c 1,5,-1
 600 600 l 1,6,-1
 600 650 l 0,7,8
 600 650 600 650 550 700 c 1,9,-1
 450 700 l 1,0,-1
400 800 m 1,10,-1
 600 800 l 1,11,-1
 700 700 l 0,12,13
 700 700 700 700 700 550 c 0,14,15
 700 550 700 550 650 500 c 0,16,17
 650 500 650 500 800 500 c 0,18,19
 800 500 800 500 800 400 c 1,20,21
 800 400 800 400 550 400 c 17,22,23
 550 400 550 400 550 0 c 1,24,25
 550 0 550 0 450 0 c 1,26,27
 450 0 450 0 450 400 c 1,28,29
 450 400 450 400 200 400 c 1,30,31
 200 400 200 400 200 500 c 0,32,33
 200 500 200 500 350 500 c 0,34,35
 350 500 350 500 300 550 c 0,36,37
 300 550 300 550 300 700 c 0,38,39
 300 700 300 700 400 800 c 1,10,-1
EndSplineSet
Validated: 1
EndChar

StartChar: uni26E7
Encoding: 9959 9959 247
Width: 1000
LayerCount: 2
Fore
SplineSet
392.458007812 263.98046875 m 1,0,-1
 44.4443359375 263.98046875 l 1,1,-1
 325.993319251 468.53832364 l 1,2,-1
 218.451171875 799.51953125 l 1,3,-1
 500 594.961914062 l 1,4,-1
 781.548828125 799.51953125 l 1,5,-1
 674.006647904 468.538222553 l 1,6,-1
 674.006835938 468.538085938 l 1,7,-1
 955.555664062 263.98046875 l 1,8,-1
 607.541992188 263.98046875 l 1,9,-1
 607.541907306 263.98046875 l 1,10,-1
 500 -67 l 1,11,-1
 392.458092694 263.98046875 l 1,12,-1
 392.458007812 263.98046875 l 1,0,-1
628.313572571 327.909179688 m 1,13,-1
 741.444335938 327.909179688 l 1,14,-1
 649.919732414 394.406204818 l 1,15,-1
 628.313572571 327.909179688 l 1,13,-1
350.080267586 394.406204818 m 1,16,-1
 258.555664062 327.909179688 l 1,17,-1
 371.686427429 327.909179688 l 1,18,-1
 350.080267586 394.406204818 l 1,16,-1
407.776545526 436.325324884 m 1,19,-1
 443.003026553 327.909179688 l 1,20,-1
 556.996973447 327.909179688 l 1,21,-1
 592.223454474 436.325324884 l 1,22,-1
 500 503.330078125 l 1,23,-1
 407.776545526 436.325324884 l 1,19,-1
383.68965514 510.457277015 m 1,24,-1
 436.939839823 549.14590385 l 1,25,-1
 350.779296875 611.745117188 l 1,26,-1
 383.68965514 510.457277015 l 1,24,-1
463.77468855 263.98046875 m 1,27,-1
 500 152.490234375 l 1,28,-1
 536.22531145 263.98046875 l 1,29,-1
 463.77468855 263.98046875 l 1,27,-1
563.060129015 549.145881209 m 1,30,-1
 616.310322905 510.457209446 l 1,31,-1
 649.220703125 611.745117188 l 1,32,-1
 563.060129015 549.145881209 l 1,30,-1
EndSplineSet
Validated: 524289
EndChar

StartChar: uni271D
Encoding: 10013 10013 248
Width: 1000
LayerCount: 2
Fore
SplineSet
250 600 m 1,0,-1
 750 600 l 1,1,-1
 750 500 l 1,2,-1
 250 500 l 1,3,-1
 250 600 l 1,0,-1
450 800 m 1,4,-1
 550 800 l 1,5,-1
 550 0 l 1,6,-1
 450 0 l 1,7,-1
 450 800 l 1,4,-1
EndSplineSet
Validated: 5
EndChar

StartChar: uni0237
Encoding: 567 567 249
Width: 1000
Flags: W
LayerCount: 2
Fore
SplineSet
400 500 m 1,0,-1
 500 500 l 1,1,-1
 550 450 l 1,2,-1
 550 0 l 1,3,-1
 450 -100 l 1,4,-1
 300 -100 l 1,5,-1
 300 0 l 1,6,-1
 400 0 l 1,7,-1
 450 50 l 1,8,-1
 450 400 l 1,9,-1
 400 400 l 1,10,-1
 400 500 l 1,0,-1
EndSplineSet
EndChar
